<?xml version="1.0" encoding="UTF-8"?>
<svg version="1.1" xmlns="http://www.w3.org/2000/svg" width="225" height="225">
<path d="M0 0 C6.53896316 4.96567879 9.66959807 10.75109327 10.875 18.875 C11.43549497 26.74578038 8.70853956 33.13644503 3.7890625 39.20703125 C-1.30055203 44.30775848 -7.29899118 46.77740902 -14.4609375 47.12109375 C-22.45952797 46.73962251 -28.32330224 43.91340156 -34.08203125 38.37890625 C-38.14176176 33.34351749 -39.67312879 27.70836144 -40.4375 21.375 C-39.48237014 14.00685534 -37.14086025 6.6358773 -31.3984375 1.59375 C-21.68267794 -5.7679709 -10.5292298 -6.0066076 0 0 Z M-24.8125 13.75 C-26.52023054 16.98569997 -26.93875973 19.32558392 -27 23 C-25.80151328 26.72338852 -24.49549004 30.03839054 -21.12890625 32.203125 C-17.39935654 33.59913994 -13.9110865 33.64393972 -10 33 C-6.03474667 30.69294352 -3.84517355 28.4960433 -2.375 24.1875 C-1.61028368 20.06739574 -2.57625073 17.27062586 -4.66015625 13.69921875 C-7.30787408 10.34132588 -10.38138613 9.24279208 -14.5 8.625 C-18.64475942 9.24671391 -21.79966765 10.84105842 -24.8125 13.75 Z " fill="#010101" transform="translate(154,75)"/>
<path d="M0 0 C6.07643356 4.86792354 8.38364066 10.34232824 10.7890625 17.55859375 C10.88382142 19.59984385 10.91978482 21.6440527 10.921875 23.6875 C10.92316406 24.88697266 10.92445312 26.08644531 10.92578125 27.32226562 C10.92191406 28.57587891 10.91804688 29.82949219 10.9140625 31.12109375 C10.91986328 33.00731445 10.91986328 33.00731445 10.92578125 34.93164062 C10.92449219 36.12982422 10.92320313 37.32800781 10.921875 38.5625 C10.92074707 39.66408447 10.91961914 40.76566895 10.91845703 41.90063477 C10.7890625 44.55859375 10.7890625 44.55859375 9.7890625 46.55859375 C5.8290625 46.55859375 1.8690625 46.55859375 -2.2109375 46.55859375 C-2.26701172 43.86509766 -2.26701172 43.86509766 -2.32421875 41.1171875 C-2.38989475 38.74346927 -2.45634152 36.36977227 -2.5234375 33.99609375 C-2.55727539 32.22395508 -2.55727539 32.22395508 -2.59179688 30.41601562 C-2.81344942 23.22238296 -3.04733635 17.33057974 -7.8359375 11.62109375 C-12.44529612 9.55901226 -17.29208177 10.19115329 -22.1484375 11.12109375 C-24.63668922 12.8553298 -25.04557325 14.30299292 -25.7980957 17.17602539 C-26.73049338 22.55702419 -26.69881557 28.04835381 -26.8359375 33.49609375 C-26.89394531 35.38038086 -26.89394531 35.38038086 -26.953125 37.30273438 C-27.04696967 40.38787801 -27.13266066 43.4730224 -27.2109375 46.55859375 C-29.19003148 46.58545928 -31.16922721 46.6049275 -33.1484375 46.62109375 C-34.25058594 46.63269531 -35.35273437 46.64429688 -36.48828125 46.65625 C-39.2109375 46.55859375 -39.2109375 46.55859375 -40.2109375 45.55859375 C-40.52437764 41.08699182 -40.48964255 36.60230452 -40.5234375 32.12109375 C-40.55244141 30.87392578 -40.58144531 29.62675781 -40.61132812 28.34179688 C-40.68639323 17.35342071 -38.63431872 9.26638667 -31.0078125 1.18359375 C-22.35009445 -6.64599475 -9.42970342 -6.1476335 0 0 Z " fill="#010101" transform="translate(100.2109375,75.44140625)"/>
<path d="M0 0 C1.79244141 0.01740234 1.79244141 0.01740234 3.62109375 0.03515625 C5.41740234 0.04869141 5.41740234 0.04869141 7.25 0.0625 C8.17683594 0.07410156 9.10367188 0.08570312 10.05859375 0.09765625 C11.05859375 2.09765625 11.05859375 2.09765625 10.53979492 3.96557617 C10.07536987 5.13503784 10.07536987 5.13503784 9.6015625 6.328125 C9.05834351 7.71680786 9.05834351 7.71680786 8.50415039 9.13354492 C8.0889917 10.17357666 7.67383301 11.2136084 7.24609375 12.28515625 C6.3309368 14.61806055 5.41697998 16.95143582 4.50390625 19.28515625 C4.24672318 19.93989426 3.9895401 20.59463226 3.7245636 21.26921082 C1.27633034 27.51075696 -1.12047882 33.77158669 -3.51171875 40.03515625 C-3.91071884 41.07996658 -4.30971893 42.12477692 -4.72080994 43.20124817 C-6.34473613 47.45459756 -7.96808422 51.7081671 -9.59072876 55.96200562 C-10.74663391 58.99081397 -11.90438616 62.01891061 -13.0625 65.046875 C-13.40906647 65.95642944 -13.75563293 66.86598389 -14.11270142 67.80310059 C-15.04508208 70.23890108 -15.98817958 72.66994536 -16.94140625 75.09765625 C-17.21759796 75.80483795 -17.49378967 76.51201965 -17.77835083 77.2406311 C-19.70123016 81.9775682 -19.70123016 81.9775682 -21.94140625 83.09765625 C-23.8152023 83.16799394 -25.69141727 83.18195845 -27.56640625 83.16015625 C-28.56929687 83.15113281 -29.5721875 83.14210938 -30.60546875 83.1328125 C-31.37632813 83.12121094 -32.1471875 83.10960937 -32.94140625 83.09765625 C-34.36373908 78.83065776 -32.61367848 75.91999217 -31.03125 71.91796875 C-30.71229767 71.08928787 -30.39334534 70.26060699 -30.06472778 69.40681458 C-29.01134505 66.67536572 -27.94514957 63.94910761 -26.87890625 61.22265625 C-26.14997895 59.33965368 -25.42204213 57.4562674 -24.69506836 55.57250977 C-23.57394359 52.66802347 -22.45204364 49.76385967 -21.32661438 46.86103821 C-18.7808365 40.29255172 -16.27208399 33.71110965 -13.79296875 27.1171875 C-13.46968094 26.25784607 -13.14639313 25.39850464 -12.81330872 24.51312256 C-11.5699935 21.20641165 -10.32764039 17.89934652 -9.08834839 14.59112549 C-8.24098989 12.33067114 -7.39036111 10.0714728 -6.5390625 7.8125 C-6.16359787 6.80616264 -6.16359787 6.80616264 -5.7805481 5.77949524 C-3.64323201 0.12095724 -3.64323201 0.12095724 0 0 Z " fill="#010101" transform="translate(52.94140625,70.90234375)"/>
<path d="M0 0 C3.0390625 -0.29296875 3.0390625 -0.29296875 6.625 -0.1875 C7.81351563 -0.16042969 9.00203125 -0.13335937 10.2265625 -0.10546875 C11.14179688 -0.07066406 12.05703125 -0.03585938 13 0 C11.68931798 6.54929621 9.84871694 12.58751897 7.4453125 18.8125 C6.93108231 20.15489746 6.93108231 20.15489746 6.40646362 21.52441406 C5.68545737 23.39800226 4.96089138 25.27022416 4.23291016 27.14111328 C3.11959723 30.01394149 2.03034552 32.89520292 0.94140625 35.77734375 C0.23582954 37.60212558 -0.47115162 39.42636513 -1.1796875 41.25 C-1.50274872 42.11343018 -1.82580994 42.97686035 -2.15866089 43.86645508 C-2.47223541 44.65818115 -2.78580994 45.44990723 -3.10888672 46.265625 C-3.37821014 46.96461914 -3.64753357 47.66361328 -3.92501831 48.38378906 C-5 50 -5 50 -6.97073364 50.72729492 C-9.25666003 51.03449153 -11.44386815 51.0964137 -13.75 51.0625 C-14.54921875 51.05347656 -15.3484375 51.04445312 -16.171875 51.03515625 C-16.77515625 51.02355469 -17.3784375 51.01195312 -18 51 C-19.15693421 47.52919736 -18.84177422 46.87998344 -17.5847168 43.57617188 C-17.25074387 42.68514771 -16.91677094 41.79412354 -16.57267761 40.87609863 C-16.01656548 39.43696106 -16.01656548 39.43696106 -15.44921875 37.96875 C-15.07521439 36.98128784 -14.70121002 35.99382568 -14.31587219 34.97644043 C-13.52233451 32.88675921 -12.72429001 30.79878475 -11.92211914 28.71240234 C-10.69382314 25.51645241 -9.47953832 22.31545691 -8.26757812 19.11328125 C-7.49561126 17.08562528 -6.72285108 15.05827112 -5.94921875 13.03125 C-5.58455002 12.07182495 -5.21988129 11.1123999 -4.84416199 10.12390137 C-4.50073257 9.2328772 -4.15730316 8.34185303 -3.8034668 7.42382812 C-3.50288864 6.64011841 -3.20231049 5.85640869 -2.8926239 5.0489502 C-2 3 -2 3 0 0 Z " fill="#000000" transform="translate(199,71)"/>
<path d="M0 0 C4.62 0 9.24 0 14 0 C15.69049968 3.99145758 17.35340671 7.99049882 19 12 C19.41507813 12.96679688 19.83015625 13.93359375 20.2578125 14.9296875 C22.63870584 20.80699764 24.09767031 25.81486927 22 32 C20.53985988 34.53300293 19.1896307 35.9667715 17 38 C16.01 38 15.02 38 14 38 C13.48697917 36.71744792 12.97395833 35.43489583 12.4609375 34.15234375 C12.13029297 33.32597412 11.79964844 32.49960449 11.45898438 31.64819336 C10.73305116 29.83286982 10.00779669 28.0172747 9.28320312 26.20141602 C7.58190856 21.94027536 5.87492889 17.68213538 4.1328125 13.4375 C3.71636475 12.41668335 3.71636475 12.41668335 3.29150391 11.37524414 C2.54151036 9.53912485 1.78652528 7.70504675 1.03125 5.87109375 C0 3 0 3 0 0 Z " fill="#010101" transform="translate(161,71)"/>
<path d="M0 0 C2.01434771 3.14592309 3.15767195 6.54551137 4.375 10.0625 C4.72949219 10.99255859 5.08398438 11.92261719 5.44921875 12.88085938 C7.48821289 18.48218884 8.52632246 23.04389518 8 29 C6.51849807 32.17464698 4.7625724 34.81296351 2 37 C1.01 37 0.02 37 -1 37 C-2.41505362 33.28639379 -3.82051105 29.56930667 -5.2175293 25.84887695 C-5.92588155 23.96834464 -6.64159229 22.0905894 -7.35742188 20.21289062 C-7.80537109 19.01728516 -8.25332031 17.82167969 -8.71484375 16.58984375 C-9.33540649 14.94810181 -9.33540649 14.94810181 -9.96850586 13.27319336 C-11.05555915 9.82369668 -11.68641612 6.60196222 -12 3 C-9.09666251 -1.35500623 -4.63755882 -1.79044993 0 0 Z " fill="#010101" transform="translate(27,72)"/>
<path d="M0 0 C2.38671875 0.12109375 2.38671875 0.12109375 5 1 C7.17922024 4.14776256 8.43997473 7.47880011 10 11 C11.98 7.37 13.96 3.74 16 0 C18.475 0.495 18.475 0.495 21 1 C21 7.27 21 13.54 21 20 C19.02 20.99 19.02 20.99 17 22 C14.95301586 19.95301586 15.29954307 15.69588759 15 13 C14.01 14.98 13.02 16.96 12 19 C10.68 19 9.36 19 8 19 C7.01 17.02 6.02 15.04 5 13 C4.67 15.64 4.34 18.28 4 21 C2.0625 21.5625 2.0625 21.5625 0 22 C-1.58937556 20.41062444 -1.12981143 18.76100154 -1.1328125 16.5625 C-1.13410156 15.66789063 -1.13539062 14.77328125 -1.13671875 13.8515625 C-1.13091797 12.44003906 -1.13091797 12.44003906 -1.125 11 C-1.12886719 10.05898437 -1.13273437 9.11796875 -1.13671875 8.1484375 C-1.13542969 7.25382813 -1.13414063 6.35921875 -1.1328125 5.4375 C-1.13112061 4.19806641 -1.13112061 4.19806641 -1.12939453 2.93359375 C-1 1 -1 1 0 0 Z " fill="#010101" transform="translate(107,132)"/>
<path d="M0 0 C2.0625 0.4375 2.0625 0.4375 4 1 C4.06058594 1.99902344 4.12117187 2.99804688 4.18359375 4.02734375 C4.26738281 5.31769531 4.35117188 6.60804688 4.4375 7.9375 C4.51871094 9.22527344 4.59992188 10.51304687 4.68359375 11.83984375 C4.64919188 14.86023957 4.64919188 14.86023957 6 16 C7.65 16 9.3 16 11 16 C11.33 11.05 11.66 6.1 12 1 C13.32 0.67 14.64 0.34 16 0 C17.96960372 1.96960372 17.2746604 5.57095615 17.3125 8.25 C17.34150391 8.91902344 17.37050781 9.58804688 17.40039062 10.27734375 C17.44608739 13.85575181 17.08995714 15.85486397 15.19140625 18.91796875 C12.14105042 21.81607866 10.17238051 22.0719376 6 22 C0.46927374 19.23463687 0.46927374 19.23463687 -0.65625 16.2734375 C-1.110704 13.26784397 -1.1318063 10.35151103 -1.125 7.3125 C-1.12757813 6.15363281 -1.13015625 4.99476563 -1.1328125 3.80078125 C-1 1 -1 1 0 0 Z " fill="#000000" transform="translate(156,132)"/>
<path d="M0 0 C0.33 1.65 0.66 3.3 1 5 C-1.97 4.67 -4.94 4.34 -8 4 C-5.25249085 7.12563423 -5.25249085 7.12563423 -1.875 8.3125 C1 10 1 10 2.125 12.9375 C2 16 2 16 0.4375 18.3125 C-2.55444141 20.38384405 -4.35818725 20.92716375 -8 21 C-11.375 19.5625 -11.375 19.5625 -14 18 C-13.67 16.35 -13.34 14.7 -13 13 C-11.88625 13.495 -11.88625 13.495 -10.75 14 C-7.86116688 15.22782871 -7.86116688 15.22782871 -4 15 C-3.67 14.34 -3.34 13.68 -3 13 C-3.63808594 12.79503906 -4.27617187 12.59007812 -4.93359375 12.37890625 C-5.75988281 12.10949219 -6.58617187 11.84007812 -7.4375 11.5625 C-8.26121094 11.29566406 -9.08492187 11.02882812 -9.93359375 10.75390625 C-12 10 -12 10 -13 9 C-13.375 5.625 -13.375 5.625 -13 2 C-8.97564938 -2.02435062 -5.15724557 -0.96152036 0 0 Z " fill="#010101" transform="translate(192,133)"/>
<path d="M0 0 C1.8671875 0.0546875 1.8671875 0.0546875 4 1 C5.6328125 3.6953125 5.6328125 3.6953125 7.125 7.125 C7.63546875 8.29675781 8.1459375 9.46851563 8.671875 10.67578125 C10.04267552 14.10681431 11.16430759 17.40652262 12 21 C10.68 21.33 9.36 21.66 8 22 C7.34 20.35 6.68 18.7 6 17 C3.03 17 0.06 17 -3 17 C-3.33 18.32 -3.66 19.64 -4 21 C-5.32 21.33 -6.64 21.66 -8 22 C-9.16648805 18.50053586 -8.8515443 18.02342776 -7.3828125 14.8046875 C-7.02316406 14.00675781 -6.66351563 13.20882812 -6.29296875 12.38671875 C-5.90753906 11.55785156 -5.52210937 10.72898438 -5.125 9.875 C-4.55845703 8.62009766 -4.55845703 8.62009766 -3.98046875 7.33984375 C-1.17099144 1.17099144 -1.17099144 1.17099144 0 0 Z M1 7 C0.34 8.98 -0.32 10.96 -1 13 C0.65 13 2.3 13 4 13 C3.34 11.02 2.68 9.04 2 7 C1.67 7 1.34 7 1 7 Z " fill="#010101" transform="translate(90,132)"/>
<path d="M0 0 C11.12903226 0 11.12903226 0 15 3 C16.36583021 7.09749063 16.46839711 9.04284068 14.5625 12.9375 C10.89275417 15.89119787 8.62062383 15.38505199 4 15 C4 16.98 4 18.96 4 21 C2.68 21 1.36 21 0 21 C0 14.07 0 7.14 0 0 Z M4 5 C4 6.98 4 8.96 4 11 C5.98 11 7.96 11 10 11 C10.38218767 9.34385343 10.71395102 7.67542976 11 6 C9.87465895 4.64381501 9.87465895 4.64381501 6.9375 4.9375 C5.968125 4.958125 4.99875 4.97875 4 5 Z " fill="#010101" transform="translate(135,132)"/>
<path d="M0 0 C0.99 0.66 1.98 1.32 3 2 C2.67 3.32 2.34 4.64 2 6 C1.37351562 5.9278125 0.74703125 5.855625 0.1015625 5.78125 C-0.71570313 5.6884375 -1.53296875 5.595625 -2.375 5.5 C-3.18710938 5.4071875 -3.99921875 5.314375 -4.8359375 5.21875 C-6.96912825 4.96647649 -6.96912825 4.96647649 -9 5 C-9.04125 6.27875 -9.0825 7.5575 -9.125 8.875 C-9.15980469 9.95394531 -9.15980469 9.95394531 -9.1953125 11.0546875 C-9.18331689 13.23863645 -9.18331689 13.23863645 -7 15 C-4.77871445 15.02308597 -4.77871445 15.02308597 -2.375 14.625 C-1.55773437 14.51414063 -0.74046875 14.40328125 0.1015625 14.2890625 C0.72804688 14.19367188 1.35453125 14.09828125 2 14 C2.33 15.32 2.66 16.64 3 18 C-0.17881775 19.89215342 -2.32577385 21 -6.0625 21 C-10.27359726 19.56643498 -13.00697642 16.98604716 -15 13 C-15.43964729 9.13110388 -15.12635224 7.24334506 -13.3125 3.75 C-9.26759972 -1.06015169 -5.99197464 -1.56312382 0 0 Z " fill="#010101" transform="translate(75,133)"/>
</svg>
